<svg width="1039" height="192" viewBox="0 0 1039 192" fill="none" xmlns="http://www.w3.org/2000/svg">
<path d="M138.942 49.6161C138.942 51.8409 138.942 54.0656 136.703 54.0656C134.464 54.0656 132.225 49.6161 132.225 45.1667C129.986 31.8183 125.508 22.9193 118.791 16.2451C114.313 14.0204 107.596 11.7957 98.6406 9.57093C96.4017 9.57093 87.4459 9.57093 76.2511 9.57093C67.2953 9.57093 58.3395 9.57093 47.1448 9.57093V89.6613C69.5343 89.6613 85.2069 87.4366 89.6848 85.2119C94.1627 82.9871 98.6406 74.0882 98.6406 58.5151C98.6406 54.0656 100.88 51.8409 100.88 51.8409C100.88 51.8409 103.119 54.0656 103.119 56.2903C103.119 58.5151 103.119 58.5151 103.119 60.7398C103.119 74.0882 103.119 85.2119 103.119 94.1108C103.119 107.459 103.119 118.583 103.119 125.257V127.482C103.119 129.707 103.119 129.707 100.88 129.707C98.6406 129.707 98.6406 129.707 98.6406 127.482C98.6406 127.482 98.6406 123.032 96.4017 114.133C98.6406 107.459 94.1627 100.785 91.9238 98.5603C89.6848 96.3355 78.4901 94.1108 65.0564 94.1108C58.3396 94.1108 51.6227 94.1108 47.1448 94.1108V120.808V174.201C47.1448 178.651 49.3838 183.1 53.8617 183.1C56.1006 183.1 60.5785 183.1 67.2953 183.1C69.5343 183.1 71.7732 183.1 71.7732 185.325C71.7732 187.55 69.5343 187.55 67.2953 187.55H62.8174C60.5785 187.55 56.1006 187.55 51.6227 187.55C47.1448 187.55 44.9059 187.55 42.6669 187.55H4.60479C2.36584 189.774 0.126892 189.774 0.126892 187.55C0.126892 185.325 2.36584 185.325 9.08269 185.325C15.7995 185.325 18.0385 183.1 20.2774 183.1C20.2774 180.875 22.5164 176.426 22.5164 169.752V16.2451C22.5164 14.0204 20.2774 11.7957 20.2774 9.57093C18.0385 9.57093 13.5606 7.3462 6.84374 7.3462C2.36584 9.57093 0.126892 7.3462 0.126892 7.3462C0.126892 5.12146 2.36584 5.12146 4.60479 5.12146H9.08269C9.08269 5.12146 18.0385 5.12146 35.9501 5.12146C53.8617 5.12146 67.2953 5.12146 78.4901 5.12146C109.835 5.12146 127.747 5.12146 134.464 2.89673C134.464 5.12146 134.464 11.7957 136.703 22.9193C136.703 29.5935 138.942 36.2677 138.942 42.9419C138.942 45.1667 138.942 47.3914 138.942 49.6161Z" fill="#6ACCC9"/>
<path d="M244.174 187.55C244.174 189.774 244.174 189.774 241.935 189.774H239.696C239.696 189.774 226.262 189.774 203.872 189.774C199.395 189.774 194.917 189.774 190.439 189.774C188.2 189.774 183.722 189.774 179.244 189.774C177.005 189.774 174.766 189.774 174.766 187.55C174.766 185.325 177.005 185.325 181.483 185.325C188.2 185.325 192.678 185.325 194.917 183.1C197.156 180.875 197.156 176.426 197.156 167.527V25.1441C197.156 16.2451 197.156 11.7957 194.917 9.57093C194.917 7.3462 188.2 7.3462 179.244 7.3462C174.766 7.3462 174.766 7.3462 174.766 5.12146C174.766 2.89673 174.766 2.89673 177.005 2.89673H212.828C215.067 2.89673 221.784 2.89673 228.501 2.89673H239.696C241.935 2.89673 244.174 2.89673 244.174 5.12146C244.174 7.3462 239.696 7.3462 232.979 7.3462C228.501 7.3462 226.262 7.3462 224.023 9.57093C224.023 11.7957 221.784 14.0204 221.784 20.6946V163.078C221.784 174.201 221.784 178.651 224.023 178.651C226.262 180.875 230.74 180.875 241.935 183.1C241.935 185.325 244.174 185.325 244.174 187.55Z" fill="#6ACCC9"/>
<path d="M461.351 134.157C461.351 136.381 461.351 136.381 459.112 136.381H452.395C443.439 136.381 438.961 136.381 438.961 140.831C438.961 143.056 438.961 149.73 438.961 163.078V171.977C430.005 180.876 421.05 185.326 412.094 187.55C403.138 192 391.943 192 380.749 192C351.642 192 329.253 183.101 313.58 167.528C297.908 149.73 288.952 127.482 288.952 98.5609C288.952 69.6394 297.908 45.1673 313.58 27.3694C329.253 9.57154 351.642 0.672607 378.51 0.672607C389.704 0.672607 403.138 2.89734 416.572 9.57154C421.05 11.7963 423.289 11.7963 427.767 11.7963C432.244 11.7963 434.483 9.57154 434.483 5.12208C434.483 2.89734 436.722 0.672607 436.722 0.672607C438.961 0.672607 438.961 0.672607 438.961 2.89734C438.961 2.89734 438.961 5.12208 438.961 9.57154C438.961 20.6952 436.722 27.3694 436.722 31.8189V49.6167C436.722 56.291 436.722 58.5157 436.722 58.5157C436.722 62.9651 434.483 65.1899 432.244 65.1899C430.005 65.1899 430.005 62.9652 430.005 60.7404C430.005 42.9426 423.289 29.5941 414.333 20.6952C405.377 11.7963 394.182 5.12208 378.51 5.12208C360.598 5.12208 344.925 14.021 333.731 29.5941C322.536 45.1673 318.058 69.6394 318.058 96.3362C318.058 123.033 322.536 145.28 333.731 160.853C344.925 176.427 360.598 185.326 378.51 185.326C391.943 185.326 403.138 180.876 407.616 174.202C409.855 169.752 412.094 163.078 412.094 151.954C412.094 143.056 412.094 138.606 409.855 136.381C407.616 134.157 403.138 134.157 391.943 134.157C389.704 134.157 387.465 134.157 387.465 134.157C387.465 134.157 387.465 134.157 387.465 131.932C387.465 129.707 389.704 129.707 394.182 129.707H398.66C400.899 129.707 409.855 129.707 427.767 129.707H450.156C452.395 129.707 452.395 129.707 454.634 129.707C456.873 129.707 456.873 129.707 456.873 129.707C459.112 131.932 461.351 131.932 461.351 134.157Z" fill="#6ACCC9"/>
<path d="M656.138 187.55C656.138 189.775 653.899 189.775 651.66 189.775C649.421 189.775 647.182 189.775 647.182 189.775H613.598H580.014C577.775 189.775 577.775 189.775 575.536 189.775C571.058 189.775 571.058 189.775 571.058 187.55C571.058 185.326 573.297 185.326 577.775 185.326C593.447 185.326 602.403 183.101 602.403 180.876C602.403 180.876 602.403 180.876 602.403 178.651L600.164 171.977L597.925 167.528C595.686 163.078 593.447 149.73 586.731 131.932H528.518C517.323 160.853 512.845 176.427 512.845 180.876C512.845 183.101 512.845 185.326 515.084 185.326C515.084 185.326 519.562 185.326 528.518 185.326C532.996 185.326 535.235 185.326 535.235 187.55C535.235 189.775 532.996 189.775 528.518 189.775C519.562 189.775 510.606 189.775 499.412 189.775C497.173 189.775 494.934 189.775 490.456 189.775C488.217 189.775 483.739 189.775 481.5 189.775C479.261 189.775 479.261 189.775 477.022 189.775C474.783 189.775 472.544 189.775 472.544 187.55C472.544 185.326 474.783 185.326 481.5 185.326C488.217 185.326 490.456 185.326 492.695 183.101C494.934 180.876 497.173 178.651 499.412 174.202C521.801 107.46 541.952 56.291 555.385 16.2457C555.385 14.021 557.624 11.7963 557.624 9.57154L559.863 5.12208C564.341 0.672607 564.341 0.672607 564.341 0.672607C564.341 0.672607 564.341 0.672607 566.58 2.89734C568.819 9.57154 573.297 25.1447 582.253 47.392C588.97 65.1899 604.642 107.46 629.271 176.427C631.51 180.876 631.51 183.101 633.749 183.101C635.987 183.101 640.465 185.326 647.182 185.326C653.899 185.326 656.138 185.326 656.138 187.55ZM584.492 123.033C582.253 114.134 577.775 100.786 571.058 82.9878L557.624 45.1673C550.907 65.1899 541.952 89.662 530.757 123.033H584.492Z" fill="#6ACCC9"/>
<path d="M830.775 180.876C830.775 187.551 824.059 192 812.864 192C799.43 192 788.235 185.326 779.28 174.202C774.802 169.753 772.563 165.303 772.563 160.854C772.563 156.404 770.324 145.281 768.085 125.258C768.085 114.134 763.607 105.235 756.89 100.786C750.173 96.3364 741.217 94.1117 725.545 94.1117V178.652C725.545 183.101 727.784 185.326 734.501 185.326C736.74 185.326 741.217 185.326 747.934 185.326C750.173 185.326 752.412 185.326 752.412 187.55C752.412 189.775 750.173 189.775 747.934 189.775H745.695C743.456 189.775 736.74 189.775 723.306 189.775C721.067 189.775 716.589 189.775 709.872 189.775C703.155 189.775 698.677 189.775 696.438 189.775H685.244C680.766 189.775 678.527 189.775 678.527 187.55C678.527 185.326 680.766 185.326 685.244 185.326C694.2 185.326 698.677 183.101 698.677 183.101C698.677 183.101 698.677 178.652 698.677 171.977V25.1449C698.677 18.4707 698.677 14.0213 696.438 11.7965C694.2 9.57178 689.722 9.57178 683.005 9.57178C678.527 9.57178 676.288 9.57178 676.288 7.34705C676.288 5.12231 678.527 5.12231 680.766 5.12231H683.005H718.828C723.306 5.12231 727.784 5.12231 734.501 5.12231C741.217 5.12231 745.695 5.12231 750.173 5.12231C765.846 5.12231 779.28 9.57178 790.474 16.246C801.669 22.9202 806.147 34.0439 806.147 45.1675C806.147 58.5159 801.669 67.4149 790.474 76.3138C779.28 85.2127 765.846 89.6622 747.934 89.6622C745.695 89.6622 745.695 89.6622 745.695 89.6622C745.695 89.6622 745.695 89.6622 747.934 89.6622C765.846 91.8869 779.28 98.5611 785.996 109.685C792.713 120.808 797.191 136.382 799.43 163.078C801.669 178.652 806.147 185.326 815.103 185.326C817.342 185.326 819.581 185.326 819.581 183.101C819.581 180.876 817.342 178.652 817.342 178.652C817.342 174.202 819.581 171.977 824.059 171.977C828.536 174.202 830.775 176.427 830.775 180.876ZM774.802 47.3923C774.802 22.9202 763.607 9.57178 741.217 9.57178C734.501 9.57178 732.262 9.57178 730.023 11.7965C727.784 14.0213 727.784 16.246 727.784 20.6955V87.4375C745.695 87.4375 756.89 85.2127 765.846 78.5385C770.324 71.8643 774.802 62.9654 774.802 47.3923Z" fill="#6ACCC9"/>
<path d="M1039 98.5609C1039 125.258 1030.04 147.505 1014.37 165.303C998.699 183.101 978.548 192 956.159 192C931.53 192 911.38 183.101 893.468 163.078C875.557 143.056 868.84 120.808 868.84 94.1114C868.84 67.4146 877.796 42.9426 893.468 25.1447C909.141 7.34681 929.291 0.672607 953.92 0.672607C978.548 0.672607 998.699 9.57154 1014.37 27.3694C1030.04 47.392 1039 69.6394 1039 98.5609ZM1007.65 98.5609C1007.65 67.4146 1000.94 40.7178 987.504 22.9199C978.548 11.7963 967.354 5.12208 951.681 5.12208C938.247 5.12208 927.053 9.57154 918.097 18.4705C904.663 34.0436 895.707 60.7404 895.707 96.3362C895.707 125.258 900.185 147.505 911.38 163.078C922.575 178.651 936.008 187.55 953.92 187.55C971.831 187.55 983.026 180.876 991.982 165.303C1003.18 149.73 1007.65 127.482 1007.65 98.5609Z" fill="#6ACCC9"/>
</svg>
